<svg width="14" height="17" viewBox="0 0 14 17" fill="none" xmlns="http://www.w3.org/2000/svg">
<path d="M8.20001 11.4C8.20001 12 7.80001 12.4 7.20001 12.4C6.60001 12.4 6.20001 12 6.20001 11.4C6.20001 10.8 6.60001 10.4 7.20001 10.4C7.80001 10.4 8.20001 10.8 8.20001 11.4Z" fill="#51616B"/>
<path d="M13.1 7.70001H12.4V5.70001C12.4 2.80001 10.1 0.5 7.20001 0.5C4.30001 0.5 2.00002 2.70001 2.00002 5.60001V7.60001H1.30002C1.00002 7.60001 0.700012 7.90001 0.700012 8.20001V16.3C0.700012 16.6 1.00002 16.9 1.30002 16.9H13C13.3 16.9 13.6 16.6 13.6 16.3V8.20001C13.7 7.90001 13.4 7.70001 13.1 7.70001ZM2.70001 5.60001C2.70001 3.10001 4.70001 1.10001 7.20001 1.10001C9.70001 1.10001 11.7 3.10001 11.7 5.60001V7.60001H2.70001V5.60001ZM7.60001 13V14.6H6.90002V13C6.10002 12.8 5.60001 12.2 5.60001 11.4C5.60001 10.5 6.40002 9.70001 7.30002 9.70001C8.20002 9.70001 9.00002 10.5 9.00002 11.4C8.90002 12.2 8.30001 12.9 7.60001 13Z" fill="#51616B"/>
</svg>
