<svg width="82" height="82" viewBox="0 0 82 82" fill="none" xmlns="http://www.w3.org/2000/svg">
<path d="M41 46.7C37.2 46.7 33.5 45.4 30.5 43C26.6 39.8 24.3 35.1 24.3 30C24.3 20.8 31.8 13.3 41 13.3C50.2 13.3 57.7 20.8 57.7 30C57.7 35.1 55.4 39.8 51.5 43C48.5 45.4 44.8 46.7 41 46.7ZM41 14.4C32.4 14.4 25.3 21.4 25.3 30.1C25.3 34.9 27.4001 39.3 31.1001 42.3C33.9001 44.6 37.4 45.8 41 45.8C44.6 45.8 48.1 44.6 50.9 42.3C54.6 39.3 56.7 34.9 56.7 30.1C56.7 21.4 49.6 14.4 41 14.4Z" fill="#51616B"/>
<path d="M67 72H66V62.6C66 53.9 58.9 46.7 50.1 46.7H31.8C23.1 46.7 15.9 53.8 15.9 62.6V72H14.9V62.6C14.9 53.3 22.5 45.7 31.8 45.7H50.1C59.4 45.7 67 53.3 67 62.6V72Z" fill="#51616B"/>
<path d="M41 81.6C18.5 81.6 0.200012 63.3 0.200012 40.8C0.200012 18.3 18.5 0 41 0C63.5 0 81.8 18.3 81.8 40.8C81.8 63.3 63.5 81.6 41 81.6ZM41 1.1C19.1 1.1 1.20001 18.9 1.20001 40.9C1.20001 62.8 19 80.7 41 80.7C63 80.7 80.8 62.9 80.8 40.9C80.8 18.9 62.9 1.1 41 1.1Z" fill="#51616B"/>
</svg>
