<svg width="18" height="17" viewBox="0 0 18 17" fill="none" xmlns="http://www.w3.org/2000/svg">
<path d="M14.3 5.29999C14.3 6.89999 13.6 8.3 12.4 9.2C11.5 9.9 10.4 10.3 9.20004 10.3C8.00004 10.3 6.90004 9.9 6.00004 9.2C4.90004 8.3 4.10004 6.89999 4.10004 5.29999C4.10004 2.49999 6.40004 0.299987 9.10004 0.299987C12 0.199987 14.3 2.49999 14.3 5.29999Z" fill="#51616B"/>
<path d="M17.6 16.9H0.900024C0.900024 13.5 2.90003 10.6 5.80003 9.29999L5.90002 9.39999C6.80002 10.1 8.00002 10.6 9.20002 10.6C10.5 10.6 11.6 10.2 12.5 9.39999L12.6 9.29999C15.5 10.6 17.6 13.5 17.6 16.9Z" fill="#51616B"/>
</svg>
